<svg width="20" height="20" viewBox="0 0 20 20" fill="none" xmlns="http://www.w3.org/2000/svg">
<path d="M10 15.8333C9.12585 15.8333 8.30335 15.4925 7.68501 14.8742L4.41418 11.645C4.08668 11.3217 4.08335 10.7942 4.40668 10.4667C4.72918 10.1383 5.25751 10.1367 5.58501 10.4592L8.85918 13.6925C9.47335 14.3067 10.5283 14.3033 11.135 13.6958L14.4142 10.4592C14.7408 10.1358 15.2667 10.1383 15.5925 10.4667C15.9158 10.7942 15.9125 11.3217 15.5842 11.645L12.3092 14.8783C11.6958 15.4933 10.8733 15.8333 9.99918 15.8333H10ZM10.5883 11.3942L15.5875 6.42416C15.9142 6.1 15.9158 5.5725 15.5908 5.24583C15.2658 4.91833 14.7392 4.91666 14.4125 5.2425L10.0008 9.62833L5.58751 5.2425C5.26168 4.91833 4.73418 4.92083 4.40835 5.24583C4.08418 5.5725 4.08585 6.1 4.41168 6.425L9.41251 11.395C9.57501 11.5567 9.78751 11.6375 10 11.6375C10.2125 11.6375 10.425 11.5567 10.5875 11.395L10.5883 11.3942Z" fill="black"/>
</svg>
