<svg width="16" height="16" viewBox="0 0 16 16" fill="none" xmlns="http://www.w3.org/2000/svg">
<path d="M12.4733 5.47299C12.4113 5.4105 12.3376 5.3609 12.2563 5.32706C12.1751 5.29321 12.088 5.27579 12 5.27579C11.912 5.27579 11.8248 5.29321 11.7436 5.32706C11.6623 5.3609 11.5886 5.4105 11.5266 5.47299L8.47329 8.52632C8.41132 8.58881 8.33758 8.6384 8.25634 8.67225C8.1751 8.70609 8.08797 8.72352 7.99996 8.72352C7.91195 8.72352 7.82481 8.70609 7.74357 8.67225C7.66233 8.6384 7.5886 8.58881 7.52663 8.52632L4.47329 5.47299C4.41132 5.4105 4.33758 5.3609 4.25634 5.32706C4.1751 5.29321 4.08797 5.27579 3.99996 5.27579C3.91195 5.27579 3.82481 5.29321 3.74357 5.32706C3.66233 5.3609 3.5886 5.4105 3.52663 5.47299C3.40246 5.59789 3.33276 5.76686 3.33276 5.94299C3.33276 6.11911 3.40246 6.28808 3.52663 6.41299L6.58663 9.47299C6.96163 9.84752 7.46996 10.0579 7.99996 10.0579C8.52996 10.0579 9.03829 9.84752 9.41329 9.47299L12.4733 6.41299C12.5975 6.28808 12.6672 6.11911 12.6672 5.94299C12.6672 5.76686 12.5975 5.59789 12.4733 5.47299Z" fill="black"/>
</svg>
