<svg width="17" height="17" viewBox="0 0 17 17" fill="none" xmlns="http://www.w3.org/2000/svg">
<g clip-path="url(#clip0_0_1192)">
<path d="M1.232 5.154C1.42533 4.73333 1.658 4.32667 1.92267 3.94533C2.13133 3.64333 2.548 3.56733 2.85067 3.778C3.15267 3.98733 3.228 4.40333 3.018 4.706C2.798 5.024 2.60467 5.362 2.44333 5.712C2.33067 5.956 2.09 6.1 1.83733 6.1C1.744 6.1 1.64933 6.08067 1.55933 6.03867C1.22467 5.88467 1.078 5.48867 1.23267 5.15467L1.232 5.154ZM4.25867 3.18333C4.392 3.18333 4.52667 3.14333 4.644 3.06C4.95933 2.836 5.296 2.63867 5.644 2.47333C5.97667 2.316 6.11867 1.918 5.96067 1.58533C5.80333 1.25333 5.40533 1.112 5.07267 1.26867C4.654 1.46733 4.25067 1.704 3.872 1.97267C3.572 2.18533 3.50133 2.602 3.71467 2.90267C3.84467 3.08533 4.05 3.18333 4.25867 3.18333ZM2.46667 11.3387C2.31133 11.006 1.91533 10.8613 1.58 11.0187C1.24667 11.1747 1.10333 11.572 1.26 11.9053C1.456 12.3233 1.69133 12.728 1.96133 13.1093C2.09067 13.2927 2.29733 13.3913 2.506 13.3913C2.63867 13.3913 2.77333 13.3513 2.89 13.2687C3.19067 13.0567 3.26267 12.6407 3.04933 12.3393C2.82533 12.022 2.62933 11.686 2.46667 11.3387ZM1.86067 9.10733C1.84267 8.908 1.83267 8.70533 1.83333 8.49933C1.83333 8.314 1.84133 8.13 1.856 7.948C1.88733 7.58133 1.61533 7.25867 1.248 7.228C0.889333 7.19067 0.559333 7.46933 0.528 7.836C0.509333 8.05467 0.5 8.276 0.5 8.49733C0.5 8.74467 0.510667 8.98867 0.532667 9.23C0.564667 9.576 0.854667 9.83533 1.196 9.83533C1.216 9.83533 1.23733 9.83533 1.258 9.83267C1.62467 9.79867 1.894 9.47467 1.86067 9.10733ZM7.83333 1.86333C7.85267 1.86333 8.29533 1.83333 8.5 1.83333C8.70467 1.83333 9.14733 1.86333 9.16667 1.86333C9.50867 1.86333 9.79933 1.602 9.83 1.256C9.86267 0.888667 9.592 0.565333 9.22533 0.532667C8.98667 0.511333 8.74467 0.5 8.5 0.5C8.25533 0.5 8.014 0.511333 7.77467 0.532667C7.408 0.565333 7.13733 0.888667 7.17 1.256C7.20067 1.60267 7.49133 1.86333 7.83333 1.86333ZM11.3393 2.46667C11.6873 2.63 12.024 2.82667 12.3407 3.05C12.458 3.13267 12.592 3.17267 12.7247 3.17267C12.9333 3.17267 13.14 3.07467 13.2693 2.89067C13.482 2.59 13.4107 2.174 13.11 1.96133C12.7307 1.69267 12.3253 1.45667 11.9067 1.25933C11.5733 1.10333 11.176 1.24533 11.0193 1.57867C10.8633 1.912 11.0053 2.30933 11.3387 2.466L11.3393 2.46667ZM12.3247 13.9613C12.008 14.1833 11.6707 14.3787 11.3207 14.5427C10.9873 14.698 10.8433 15.0953 11 15.4287C11.1133 15.6707 11.3533 15.8127 11.604 15.8127C11.6987 15.8127 11.7947 15.7927 11.886 15.7493C12.306 15.5533 12.7107 15.3187 13.0907 15.052C13.392 14.8407 13.4653 14.4253 13.2533 14.1233C13.0427 13.822 12.6273 13.7487 12.3247 13.9613ZM15.4287 11.0013C15.0953 10.8447 14.698 10.9887 14.5427 11.322C14.3787 11.6713 14.1833 12.0093 13.9613 12.326C13.75 12.6273 13.8227 13.0427 14.124 13.2547C14.2407 13.3367 14.374 13.376 14.506 13.376C14.716 13.376 14.9227 13.2773 15.052 13.092C15.318 12.7127 15.5533 12.3073 15.7493 11.8873C15.9053 11.554 15.762 11.1567 15.4287 11.0013ZM15.7507 7.20933C15.384 7.24067 15.112 7.56267 15.1433 7.93C15.1587 8.11667 15.1673 8.306 15.1667 8.5C15.1667 8.7 15.1573 8.898 15.1413 9.09267C15.11 9.45933 15.3813 9.782 15.7487 9.81333C15.768 9.81533 15.7873 9.816 15.806 9.816C16.1487 9.816 16.44 9.55333 16.4693 9.206C16.4893 8.97333 16.5 8.738 16.5 8.502C16.5 8.27067 16.4907 8.04267 16.4713 7.81667C16.44 7.44933 16.124 7.17 15.7507 7.20933ZM5.69467 14.5493C5.34667 14.388 5.008 14.1933 4.68867 13.9713C4.38667 13.7613 3.97133 13.8347 3.76067 14.1373C3.55067 14.4393 3.62467 14.8547 3.92667 15.0653C4.308 15.3313 4.71467 15.5653 5.13333 15.7593C5.22467 15.8013 5.31933 15.8213 5.41333 15.8213C5.66533 15.8213 5.906 15.6787 6.01867 15.4353C6.17333 15.1013 6.02867 14.7047 5.69467 14.55V14.5493ZM16.312 3.36933C16.0553 3.10533 15.6327 3.09867 15.3693 3.35533L9.00067 9.54067C8.61733 9.92333 7.98933 9.93 7.59867 9.55333L4.93667 6.98C4.672 6.724 4.25 6.73133 3.994 6.99533C3.738 7.26 3.74533 7.682 4.00933 7.938L6.67133 10.5113C7.122 10.9467 7.70933 11.164 8.29533 11.164C8.89267 11.164 9.48867 10.9387 9.936 10.4907L16.2973 4.312C16.5613 4.05533 16.568 3.63267 16.3113 3.36933H16.312ZM9.08933 15.1413C8.902 15.1573 8.71267 15.1667 8.51933 15.1667C8.31467 15.162 8.122 15.1587 7.92733 15.1427C7.556 15.1187 7.238 15.386 7.208 15.7527C7.178 16.12 7.45133 16.4413 7.818 16.472C8.05 16.4907 8.26267 16.4953 8.52133 16.5C8.752 16.5 8.98067 16.4893 9.20667 16.4693C9.574 16.4367 9.84467 16.1133 9.812 15.7467C9.77933 15.38 9.454 15.1073 9.08933 15.1413Z" fill="black"/>
</g>
<defs>
<clipPath id="clip0_0_1192">
<rect width="16" height="16" fill="white" transform="translate(0.5 0.5)"/>
</clipPath>
</defs>
</svg>
