<svg width="16" height="16" viewBox="0 0 16 16" fill="none" xmlns="http://www.w3.org/2000/svg">
<g clip-path="url(#clip0_0_2006)">
<path d="M12.6667 0.666412H3.33333C2.4496 0.667471 1.60237 1.019 0.97748 1.64389C0.352588 2.26878 0.00105857 3.11602 0 3.99975L0 11.9997C0.00105857 12.8835 0.352588 13.7307 0.97748 14.3556C1.60237 14.9805 2.4496 15.332 3.33333 15.3331H12.6667C13.5504 15.332 14.3976 14.9805 15.0225 14.3556C15.6474 13.7307 15.9989 12.8835 16 11.9997V3.99975C15.9989 3.11602 15.6474 2.26878 15.0225 1.64389C14.3976 1.019 13.5504 0.667471 12.6667 0.666412ZM3.33333 1.99975H12.6667C13.0659 2.00053 13.4557 2.12076 13.786 2.34495C14.1163 2.56914 14.3719 2.88704 14.52 3.25775L9.41467 8.36375C9.03895 8.73796 8.53028 8.94806 8 8.94806C7.46972 8.94806 6.96105 8.73796 6.58533 8.36375L1.48 3.25775C1.6281 2.88704 1.88374 2.56914 2.21403 2.34495C2.54432 2.12076 2.93414 2.00053 3.33333 1.99975ZM12.6667 13.9997H3.33333C2.8029 13.9997 2.29419 13.789 1.91912 13.414C1.54405 13.0389 1.33333 12.5302 1.33333 11.9997V4.99975L5.64267 9.30641C6.26842 9.93058 7.11617 10.2811 8 10.2811C8.88383 10.2811 9.73158 9.93058 10.3573 9.30641L14.6667 4.99975V11.9997C14.6667 12.5302 14.456 13.0389 14.0809 13.414C13.7058 13.789 13.1971 13.9997 12.6667 13.9997Z" fill="#575757"/>
</g>
<defs>
<clipPath id="clip0_0_2006">
<rect width="16" height="16" fill="white"/>
</clipPath>
</defs>
</svg>
