<svg width="16" height="16" viewBox="0 0 16 16" fill="none" xmlns="http://www.w3.org/2000/svg">
<g clip-path="url(#clip0_0_2004)">
<path d="M8.56683 0.0199747C6.2535 -0.140025 3.98016 0.706641 2.34016 2.34664C0.706828 3.97997 -0.139839 6.25331 0.0201613 8.56664C0.306828 12.7333 3.9135 16 8.22683 16H12.6668C14.6268 16 16.0002 14.4 16.0002 12.1V8.21997C16.0002 3.91331 12.7335 0.306641 8.56683 0.0199747ZM14.6668 12.1C14.6668 13.6333 13.8602 14.6666 12.6668 14.6666H8.22683C4.6135 14.6666 1.59349 11.9466 1.35349 8.47997C1.22016 6.54664 1.92683 4.65331 3.28683 3.28664C4.54016 2.03331 6.24016 1.33331 8.0135 1.33331C8.16683 1.33331 8.32683 1.33331 8.48016 1.34664C11.9535 1.58664 14.6668 4.60664 14.6668 8.21997V12.1Z" fill="#2FA837"/>
</g>
<defs>
<clipPath id="clip0_0_2004">
<rect width="16" height="16" fill="white"/>
</clipPath>
</defs>
</svg>
