<svg width="20" height="20" viewBox="0 0 20 20" fill="none" xmlns="http://www.w3.org/2000/svg">
<g clip-path="url(#clip0_0_2000)">
<path d="M18.2635 7.27207L3.30429 0.234573C2.45929 -0.176261 1.46345 -0.0345939 0.764288 0.59374C0.0634546 1.22457 -0.179879 2.20457 0.143455 3.08957C0.157621 3.12541 3.81929 10.0029 3.81929 10.0029C3.81929 10.0029 0.225121 16.8787 0.212621 16.9137C-0.109879 17.7996 0.135955 18.7779 0.836788 19.4079C1.27095 19.7971 1.81929 19.9979 2.37095 19.9979C2.71179 19.9979 3.05345 19.9212 3.37179 19.7654L18.2651 12.7337C19.336 12.2312 20.001 11.1846 20.0001 10.0021C20.0001 8.81874 19.3326 7.77207 18.2635 7.27207ZM1.69345 2.47207C1.59179 2.12624 1.80845 1.89707 1.87929 1.83207C1.95345 1.76624 2.22429 1.56207 2.57762 1.73541C2.58179 1.73707 17.556 8.78124 17.556 8.78124C17.7551 8.87457 17.921 9.00624 18.0485 9.16624H5.26262L1.69345 2.47207ZM17.5551 11.2254L2.64845 18.2637C2.29429 18.4379 2.02429 18.2346 1.95012 18.1671C1.87845 18.1037 1.66179 17.8729 1.76429 17.5262L5.26595 10.8329H18.0535C17.926 10.9954 17.7568 11.1304 17.5551 11.2254Z" fill="black"/>
</g>
<defs>
<clipPath id="clip0_0_2000">
<rect width="20" height="20" fill="white"/>
</clipPath>
</defs>
</svg>
