<svg width="17" height="17" viewBox="0 0 17 17" fill="none" xmlns="http://www.w3.org/2000/svg">
<g clip-path="url(#clip0_0_1195)">
<path d="M16.3907 6.36267C16.2543 5.9286 15.9819 5.54995 15.6136 5.28269C15.2454 5.01544 14.801 4.87378 14.346 4.87867H11.4333L10.5487 2.12134C10.4096 1.68731 10.1362 1.30868 9.76799 1.04005C9.39979 0.771416 8.95578 0.626663 8.50001 0.626663C8.04423 0.626663 7.60023 0.771416 7.23203 1.04005C6.86383 1.30868 6.59046 1.68731 6.45134 2.12134L5.56667 4.87867H2.65401C2.2005 4.87932 1.7588 5.02326 1.39199 5.28994C1.02519 5.55662 0.752034 5.9324 0.611554 6.3636C0.471075 6.7948 0.470453 7.25936 0.609778 7.69093C0.749102 8.12251 1.02125 8.49901 1.38734 8.76667L3.75801 10.5L2.85667 13.2913C2.71101 13.7243 2.70917 14.1927 2.85141 14.6267C2.99366 15.0608 3.27237 15.4373 3.64601 15.7C4.01324 15.9712 4.45827 16.1165 4.91478 16.1142C5.37128 16.1119 5.81483 15.9622 6.17934 15.6873L8.50001 13.9793L10.8213 15.6853C11.1879 15.955 11.6305 16.1014 12.0856 16.1036C12.5406 16.1059 12.9847 15.9637 13.3538 15.6977C13.723 15.4316 13.9983 15.0554 14.1402 14.623C14.2821 14.1906 14.2832 13.7244 14.1433 13.2913L13.242 10.5L15.6153 8.76667C15.9856 8.50237 16.261 8.12587 16.4006 7.6929C16.5402 7.25993 16.5368 6.79351 16.3907 6.36267ZM14.8287 7.69001L12.066 9.70934C11.9525 9.79212 11.8681 9.90862 11.8248 10.0422C11.7814 10.1758 11.7814 10.3197 11.8247 10.4533L12.8747 13.7C12.9278 13.8647 12.9274 14.042 12.8734 14.2064C12.8194 14.3707 12.7147 14.5138 12.5743 14.6149C12.4339 14.7161 12.265 14.7701 12.092 14.7692C11.919 14.7683 11.7507 14.7126 11.6113 14.61L8.89467 12.61C8.78025 12.526 8.64198 12.4806 8.50001 12.4806C8.35803 12.4806 8.21976 12.526 8.10534 12.61L5.38867 14.61C5.24939 14.714 5.08063 14.7708 4.90685 14.7724C4.73307 14.774 4.5633 14.7202 4.42216 14.6188C4.28102 14.5174 4.17584 14.3737 4.12187 14.2085C4.0679 14.0433 4.06795 13.8652 4.12201 13.7L5.17534 10.4533C5.21862 10.3197 5.21859 10.1758 5.17525 10.0422C5.13191 9.90862 5.04748 9.79212 4.93401 9.70934L2.17134 7.69001C2.03221 7.58814 1.92883 7.4449 1.87597 7.28077C1.82311 7.11663 1.82347 6.93999 1.877 6.77607C1.93053 6.61215 2.03449 6.46934 2.17403 6.36804C2.31358 6.26674 2.48157 6.21213 2.65401 6.21201H6.05401C6.19515 6.212 6.33265 6.1672 6.44671 6.08406C6.56076 6.00091 6.64548 5.88371 6.68867 5.74934L7.72201 2.52867C7.77505 2.36386 7.87901 2.22013 8.01894 2.11817C8.15887 2.01621 8.32754 1.96128 8.50067 1.96128C8.67381 1.96128 8.84248 2.01621 8.9824 2.11817C9.12233 2.22013 9.2263 2.36386 9.27934 2.52867L10.3127 5.74934C10.3559 5.88371 10.4406 6.00091 10.5546 6.08406C10.6687 6.1672 10.8062 6.212 10.9473 6.21201H14.3473C14.5198 6.21213 14.6878 6.26674 14.8273 6.36804C14.9669 6.46934 15.0708 6.61215 15.1243 6.77607C15.1779 6.93999 15.1782 7.11663 15.1254 7.28077C15.0725 7.4449 14.9691 7.58814 14.83 7.69001H14.8287Z" fill="black"/>
</g>
<defs>
<clipPath id="clip0_0_1195">
<rect width="16" height="16" fill="white" transform="translate(0.5 0.5)"/>
</clipPath>
</defs>
</svg>
