<svg width="16" height="16" viewBox="0 0 16 16" fill="none" xmlns="http://www.w3.org/2000/svg">
<g clip-path="url(#clip0_0_754)">
<path d="M15.3333 16H3.33333C1.49333 16 0 14.5067 0 12.6667V0.666667C0 0.3 0.3 0 0.666667 0C1.03333 0 1.33333 0.3 1.33333 0.666667V12.6667C1.33333 13.7667 2.23333 14.6667 3.33333 14.6667H15.3333C15.7 14.6667 16 14.9667 16 15.3333C16 15.7 15.7 16 15.3333 16ZM16 11.3333C16 10.9667 15.7 10.6667 15.3333 10.6667H11.3333C10.9667 10.6667 10.6667 10.9667 10.6667 11.3333C10.6667 11.7 10.9667 12 11.3333 12H15.3333C15.7 12 16 11.7 16 11.3333ZM13.3333 7.33333C13.3333 6.96667 13.0333 6.66667 12.6667 6.66667H6.66667C6.3 6.66667 6 6.96667 6 7.33333C6 7.7 6.3 8 6.66667 8H12.6667C13.0333 8 13.3333 7.7 13.3333 7.33333ZM8.66667 3.33333C8.66667 2.96667 8.36667 2.66667 8 2.66667H4C3.63333 2.66667 3.33333 2.96667 3.33333 3.33333C3.33333 3.7 3.63333 4 4 4H8C8.36667 4 8.66667 3.7 8.66667 3.33333Z" fill="black"/>
</g>
<defs>
<clipPath id="clip0_0_754">
<rect width="16" height="16" fill="white"/>
</clipPath>
</defs>
</svg>
