<svg width="16" height="16" viewBox="0 0 16 16" fill="none" xmlns="http://www.w3.org/2000/svg">
<g clip-path="url(#clip0_0_768)">
<path d="M4.93333 3.70228C4.87182 3.59896 4.78452 3.51338 4.67998 3.45396C4.57544 3.39453 4.45725 3.36328 4.337 3.36328C4.21675 3.36328 4.09856 3.39453 3.99402 3.45396C3.88948 3.51338 3.80218 3.59896 3.74067 3.70228L0.0739989 11.0356C0.0340561 11.114 0.0100267 11.1995 0.00329622 11.2873C-0.00343428 11.375 0.00726724 11.4632 0.0347838 11.5468C0.0623003 11.6303 0.106088 11.7076 0.163621 11.7742C0.221154 11.8408 0.291295 11.8953 0.37 11.9346C0.448706 11.9739 0.534418 11.9973 0.622195 12.0034C0.709972 12.0094 0.798078 11.998 0.881432 11.9698C0.964787 11.9417 1.04174 11.8973 1.10786 11.8392C1.17398 11.7812 1.22795 11.7106 1.26667 11.6316L2.41267 9.33362H6.25533L7.40467 11.6316C7.44338 11.7106 7.49735 11.7812 7.56347 11.8392C7.62959 11.8973 7.70654 11.9417 7.7899 11.9698C7.87325 11.998 7.96136 12.0094 8.04914 12.0034C8.13691 11.9973 8.22263 11.9739 8.30133 11.9346C8.38004 11.8953 8.45018 11.8408 8.50771 11.7742C8.56524 11.7076 8.60903 11.6303 8.63655 11.5468C8.66406 11.4632 8.67477 11.375 8.66804 11.2873C8.6613 11.1995 8.63727 11.114 8.59733 11.0356L4.93333 3.70228ZM3.07933 8.00029L4.33333 5.49095L5.58867 8.00029H3.07933Z" fill="black"/>
<path d="M15.3334 5.33359C15.1566 5.33359 14.987 5.40383 14.862 5.52885C14.7369 5.65387 14.6667 5.82344 14.6667 6.00025V6.01759C14.0931 5.57638 13.3904 5.33604 12.6667 5.33359C11.7827 5.33359 10.9348 5.68478 10.3097 6.3099C9.68456 6.93502 9.33337 7.78287 9.33337 8.66692C9.33337 9.55098 9.68456 10.3988 10.3097 11.0239C10.9348 11.6491 11.7827 12.0003 12.6667 12.0003C13.3904 11.9978 14.0931 11.7575 14.6667 11.3163V11.3336C14.6667 11.5104 14.7369 11.68 14.862 11.805C14.987 11.93 15.1566 12.0003 15.3334 12.0003C15.5102 12.0003 15.6798 11.93 15.8048 11.805C15.9298 11.68 16 11.5104 16 11.3336V6.00025C16 5.82344 15.9298 5.65387 15.8048 5.52885C15.6798 5.40383 15.5102 5.33359 15.3334 5.33359ZM12.6667 10.6669C12.2711 10.6669 11.8845 10.5496 11.5556 10.3299C11.2267 10.1101 10.9703 9.79774 10.8189 9.43229C10.6676 9.06684 10.628 8.6647 10.7051 8.27674C10.7823 7.88878 10.9728 7.53241 11.2525 7.25271C11.5322 6.973 11.8886 6.78252 12.2765 6.70535C12.6645 6.62818 13.0666 6.66779 13.4321 6.81916C13.7975 6.97054 14.1099 7.22688 14.3296 7.55578C14.5494 7.88468 14.6667 8.27136 14.6667 8.66692C14.6667 9.19735 14.456 9.70606 14.0809 10.0811C13.7058 10.4562 13.1971 10.6669 12.6667 10.6669Z" fill="black"/>
</g>
<defs>
<clipPath id="clip0_0_768">
<rect width="16" height="16" fill="white"/>
</clipPath>
</defs>
</svg>
