<svg width="12" height="12" viewBox="0 0 12 12" fill="none" xmlns="http://www.w3.org/2000/svg">
<path d="M7.89998 2.8C7.18343 2.8 6.59998 2.21654 6.59998 1.5C6.59998 0.783457 7.18343 0.2 7.89998 0.2C8.61652 0.2 9.19998 0.783457 9.19998 1.5C9.19998 2.21654 8.61652 2.8 7.89998 2.8ZM7.89998 11.8C7.18343 11.8 6.59998 11.2165 6.59998 10.5C6.59998 9.78346 7.18343 9.2 7.89998 9.2C8.61652 9.2 9.19998 9.78346 9.19998 10.5C9.19998 11.2165 8.61652 11.8 7.89998 11.8ZM7.89998 7.3C7.18343 7.3 6.59998 6.71654 6.59998 6C6.59998 5.28346 7.18343 4.7 7.89998 4.7C8.61652 4.7 9.19998 5.28346 9.19998 6C9.19998 6.71654 8.61652 7.3 7.89998 7.3ZM4.09998 2.8C3.38343 2.8 2.79998 2.21654 2.79998 1.5C2.79998 0.783457 3.38343 0.2 4.09998 0.2C4.81652 0.2 5.39998 0.783457 5.39998 1.5C5.39998 2.21654 4.81652 2.8 4.09998 2.8ZM4.09998 11.8C3.38343 11.8 2.79998 11.2165 2.79998 10.5C2.79998 9.78346 3.38343 9.2 4.09998 9.2C4.81652 9.2 5.39998 9.78346 5.39998 10.5C5.39998 11.2165 4.81652 11.8 4.09998 11.8ZM4.09998 7.3C3.38343 7.3 2.79998 6.71654 2.79998 6C2.79998 5.28346 3.38343 4.7 4.09998 4.7C4.81652 4.7 5.39998 5.28346 5.39998 6C5.39998 6.71654 4.81652 7.3 4.09998 7.3Z" fill="black" stroke="#D5D5D5" stroke-width="0.4"/>
</svg>
