<svg width="16" height="16" viewBox="0 0 16 16" fill="none" xmlns="http://www.w3.org/2000/svg">
<g clip-path="url(#clip0_0_634)">
<path d="M4.66667 3.99975H15.3333C15.5101 3.99975 15.6797 3.92951 15.8047 3.80448C15.9298 3.67946 16 3.50989 16 3.33308C16 3.15627 15.9298 2.9867 15.8047 2.86167C15.6797 2.73665 15.5101 2.66641 15.3333 2.66641H4.66667C4.48986 2.66641 4.32029 2.73665 4.19526 2.86167C4.07024 2.9867 4 3.15627 4 3.33308C4 3.50989 4.07024 3.67946 4.19526 3.80448C4.32029 3.92951 4.48986 3.99975 4.66667 3.99975Z" fill="black"/>
<path d="M15.3333 7.33359H4.66667C4.48986 7.33359 4.32029 7.40383 4.19526 7.52885C4.07024 7.65387 4 7.82344 4 8.00025C4 8.17707 4.07024 8.34663 4.19526 8.47166C4.32029 8.59668 4.48986 8.66692 4.66667 8.66692H15.3333C15.5101 8.66692 15.6797 8.59668 15.8047 8.47166C15.9298 8.34663 16 8.17707 16 8.00025C16 7.82344 15.9298 7.65387 15.8047 7.52885C15.6797 7.40383 15.5101 7.33359 15.3333 7.33359Z" fill="black"/>
<path d="M15.3333 12H4.66667C4.48986 12 4.32029 12.0702 4.19526 12.1953C4.07024 12.3203 4 12.4899 4 12.6667C4 12.8435 4.07024 13.013 4.19526 13.1381C4.32029 13.2631 4.48986 13.3333 4.66667 13.3333H15.3333C15.5101 13.3333 15.6797 13.2631 15.8047 13.1381C15.9298 13.013 16 12.8435 16 12.6667C16 12.4899 15.9298 12.3203 15.8047 12.1953C15.6797 12.0702 15.5101 12 15.3333 12Z" fill="black"/>
<path d="M1.33333 4.66667C2.06971 4.66667 2.66667 4.06971 2.66667 3.33333C2.66667 2.59695 2.06971 2 1.33333 2C0.596954 2 0 2.59695 0 3.33333C0 4.06971 0.596954 4.66667 1.33333 4.66667Z" fill="black"/>
<path d="M1.33333 9.33308C2.06971 9.33308 2.66667 8.73613 2.66667 7.99975C2.66667 7.26337 2.06971 6.66641 1.33333 6.66641C0.596954 6.66641 0 7.26337 0 7.99975C0 8.73613 0.596954 9.33308 1.33333 9.33308Z" fill="black"/>
<path d="M1.33333 14.0003C2.06971 14.0003 2.66667 13.4033 2.66667 12.6669C2.66667 11.9305 2.06971 11.3336 1.33333 11.3336C0.596954 11.3336 0 11.9305 0 12.6669C0 13.4033 0.596954 14.0003 1.33333 14.0003Z" fill="black"/>
</g>
<defs>
<clipPath id="clip0_0_634">
<rect width="16" height="16" fill="white"/>
</clipPath>
</defs>
</svg>
