<svg width="16" height="16" viewBox="0 0 16 16" fill="none" xmlns="http://www.w3.org/2000/svg">
<g clip-path="url(#clip0_0_793)">
<path d="M7.99999 2.66667C8.73637 2.66667 9.33332 2.06971 9.33332 1.33333C9.33332 0.596954 8.73637 0 7.99999 0C7.26361 0 6.66666 0.596954 6.66666 1.33333C6.66666 2.06971 7.26361 2.66667 7.99999 2.66667Z" fill="black"/>
<path d="M7.99999 9.33332C8.73637 9.33332 9.33332 8.73637 9.33332 7.99999C9.33332 7.26361 8.73637 6.66666 7.99999 6.66666C7.26361 6.66666 6.66666 7.26361 6.66666 7.99999C6.66666 8.73637 7.26361 9.33332 7.99999 9.33332Z" fill="black"/>
<path d="M7.99999 16C8.73637 16 9.33332 15.4031 9.33332 14.6667C9.33332 13.9303 8.73637 13.3333 7.99999 13.3333C7.26361 13.3333 6.66666 13.9303 6.66666 14.6667C6.66666 15.4031 7.26361 16 7.99999 16Z" fill="black"/>
</g>
<defs>
<clipPath id="clip0_0_793">
<rect width="16" height="16" rx="4" fill="white"/>
</clipPath>
</defs>
</svg>
