<svg width="16" height="16" viewBox="0 0 16 16" fill="none" xmlns="http://www.w3.org/2000/svg">
<g clip-path="url(#clip0_0_774)">
<path d="M1.61333 4.32667C1.31333 4.11333 1.24 3.7 1.45333 3.4C1.98667 2.64667 2.64 1.99333 3.39333 1.46C3.69333 1.24667 4.11333 1.32 4.32 1.62C4.53333 1.92 4.46 2.34 4.16 2.54667C3.53333 2.99333 2.98667 3.53333 2.54 4.16667C2.41333 4.35333 2.20667 4.44667 1.99333 4.44667C1.86 4.44667 1.72667 4.40667 1.60667 4.32667H1.61333ZM2.54667 11.8333C2.33333 11.5333 1.92 11.46 1.62 11.6733C1.32 11.8867 1.24667 12.3 1.46 12.6C1.99333 13.3533 2.64667 14.0067 3.4 14.54C3.51333 14.62 3.65333 14.66 3.78667 14.66C3.99333 14.66 4.2 14.56 4.33333 14.38C4.54667 14.08 4.47333 13.66 4.17333 13.4533C3.54 13.0067 3 12.4667 2.55333 11.8333H2.54667ZM1.33333 8C1.33333 7.59333 1.36667 7.18667 1.44 6.79333C1.50667 6.43333 1.26667 6.08667 0.906667 6.02C0.546667 5.95333 0.2 6.19333 0.133333 6.55333C0.0466667 7.02667 0 7.51333 0 8C0 8.48667 0.0466667 8.97333 0.133333 9.44667C0.193333 9.76667 0.473333 9.99333 0.786667 9.99333C0.826667 9.99333 0.866667 9.99333 0.906667 9.98C1.26667 9.91333 1.50667 9.56667 1.44 9.20667C1.36667 8.81333 1.33333 8.40667 1.33333 8ZM13.4533 11.8333C13.0067 12.4667 12.4667 13.0067 11.8333 13.4533C11.5333 13.6667 11.46 14.08 11.6733 14.38C11.8 14.5667 12.0067 14.66 12.22 14.66C12.3533 14.66 12.4867 14.62 12.6067 14.54C13.36 14.0067 14.0133 13.3533 14.5467 12.6C14.76 12.3 14.6867 11.88 14.3867 11.6733C14.0867 11.46 13.6667 11.5333 13.46 11.8333H13.4533ZM9.20667 14.56C8.81333 14.6333 8.40667 14.6667 8 14.6667C7.59333 14.6667 7.18667 14.6333 6.79333 14.56C6.43333 14.4933 6.08667 14.7333 6.02 15.0933C5.95333 15.4533 6.19333 15.8 6.55333 15.8667C7.02667 15.9533 7.51333 16 8 16C8.48667 16 8.97333 15.9533 9.44667 15.8667C9.80667 15.8 10.0467 15.4533 9.98 15.0933C9.91333 14.7333 9.56667 14.4867 9.20667 14.56ZM9.44667 0.133333C8.97333 0.0466667 8.48667 0 8 0C7.51333 0 7.02667 0.0466667 6.55333 0.133333C6.19333 0.2 5.95333 0.546667 6.02 0.906667C6.08 1.22667 6.36 1.45333 6.67333 1.45333C6.71333 1.45333 6.75333 1.45333 6.79333 1.44C7.18667 1.36667 7.59333 1.33333 8 1.33333C8.40667 1.33333 8.81333 1.36667 9.20667 1.44C9.24667 1.44667 9.28667 1.45333 9.32667 1.45333C9.64 1.45333 9.92 1.22667 9.98 0.906667C10.0467 0.546667 9.80667 0.2 9.44667 0.133333ZM13.4533 4.16667C13.58 4.35333 13.7867 4.44667 14 4.44667C14.1333 4.44667 14.2667 4.40667 14.3867 4.32667C14.6867 4.11333 14.76 3.7 14.5467 3.4C14.0133 2.64667 13.36 1.99333 12.6067 1.46C12.3067 1.24667 11.8867 1.32 11.68 1.62C11.4667 1.92 11.54 2.34 11.84 2.54667C12.4733 2.99333 13.0133 3.53333 13.46 4.16667H13.4533ZM15.8667 6.55333C15.8 6.19333 15.4533 5.94667 15.0933 6.02C14.7333 6.08667 14.4933 6.43333 14.56 6.79333C14.6333 7.18667 14.6667 7.59333 14.6667 8C14.6667 8.40667 14.6333 8.81333 14.56 9.20667C14.4933 9.56667 14.7333 9.91333 15.0933 9.98C15.1333 9.98667 15.1733 9.99333 15.2133 9.99333C15.5267 9.99333 15.8067 9.76667 15.8667 9.44667C15.9533 8.97333 16 8.48667 16 8C16 7.51333 15.9533 7.02667 15.8667 6.55333Z" fill="black"/>
</g>
<defs>
<clipPath id="clip0_0_774">
<rect width="16" height="16" fill="white"/>
</clipPath>
</defs>
</svg>
