<svg width="16" height="16" viewBox="0 0 16 16" fill="none" xmlns="http://www.w3.org/2000/svg">
<g clip-path="url(#clip0_0_637)">
<path d="M6.66642 2.66648L6.66642 13.3332C6.66642 14.8065 5.47309 15.9998 3.99976 15.9998H2.66642C1.19309 15.9998 -0.000244141 14.8065 -0.000244141 13.3332L-0.000244141 2.66648C-0.000244141 1.19315 1.19309 -0.000183105 2.66642 -0.000183105H3.99976C5.47309 -0.000183105 6.66642 1.19315 6.66642 2.66648ZM1.33309 13.3332C1.33309 14.0665 1.93309 14.6665 2.66642 14.6665H3.99976C4.73309 14.6665 5.33309 14.0665 5.33309 13.3332L5.33309 2.66648C5.33309 1.93315 4.73309 1.33315 3.99976 1.33315H2.66642C1.93309 1.33315 1.33309 1.93315 1.33309 2.66648L1.33309 13.3332ZM15.9998 2.66648V13.3332C15.9998 14.8065 14.8064 15.9998 13.3331 15.9998H11.9998C10.5264 15.9998 9.33309 14.8065 9.33309 13.3332L9.33309 2.66648C9.33309 1.19315 10.5264 -0.000183105 11.9998 -0.000183105H13.3331C14.8064 -0.000183105 15.9998 1.19315 15.9998 2.66648ZM10.6664 13.3332C10.6664 14.0665 11.2664 14.6665 11.9998 14.6665H13.3331C14.0664 14.6665 14.6664 14.0665 14.6664 13.3332L14.6664 2.66648C14.6664 1.93315 14.0664 1.33315 13.3331 1.33315H11.9998C11.2664 1.33315 10.6664 1.93315 10.6664 2.66648L10.6664 13.3332Z" fill="black"/>
</g>
<defs>
<clipPath id="clip0_0_637">
<rect width="16" height="16" fill="white"/>
</clipPath>
</defs>
</svg>
