<svg width="18" height="20" viewBox="0 0 18 20" fill="none" xmlns="http://www.w3.org/2000/svg">
<path d="M15.625 4.61667L12.7167 1.70833C11.6167 0.608333 10.15 0 8.59167 0H4.83334C2.53334 0 0.666672 1.86667 0.666672 4.16667V15.8333C0.666672 18.1333 2.53334 20 4.83334 20H13.1667C15.4667 20 17.3333 18.1333 17.3333 15.8333V8.74167C17.3333 7.18333 16.725 5.71667 15.625 4.61667ZM14.45 5.79167C14.7167 6.05833 14.9417 6.35 15.125 6.66667H11.5083C11.05 6.66667 10.675 6.29167 10.675 5.83333V2.21667C10.9917 2.4 11.2833 2.625 11.55 2.89167L14.4583 5.8L14.45 5.79167ZM15.6667 15.8333C15.6667 17.2083 14.5417 18.3333 13.1667 18.3333H4.83334C3.45834 18.3333 2.33334 17.2083 2.33334 15.8333V4.16667C2.33334 2.79167 3.45834 1.66667 4.83334 1.66667H8.59167C8.72501 1.66667 8.86667 1.66667 9 1.68333V5.83333C9 7.20833 10.125 8.33333 11.5 8.33333H15.65C15.6667 8.46667 15.6667 8.6 15.6667 8.74167V15.8333ZM4.90834 10.8333H4.00001C3.54167 10.8333 3.16667 11.2083 3.16667 11.6667V15.3667C3.16667 15.6583 3.4 15.8833 3.68334 15.8833C3.96667 15.8833 4.2 15.65 4.2 15.3667V14.35H4.9C5.88334 14.35 6.68334 13.5583 6.68334 12.5917C6.68334 11.625 5.88334 10.8333 4.9 10.8333H4.90834ZM4.90834 13.3083H4.21667V11.875H4.91667C5.31667 11.875 5.65834 12.2 5.65834 12.5917C5.65834 12.9833 5.31667 13.3083 4.91667 13.3083H4.90834ZM14.85 11.3583C14.85 11.65 14.6167 11.875 14.3333 11.875H12.925V12.825H13.9583C14.25 12.825 14.475 13.0583 14.475 13.3417C14.475 13.625 14.2417 13.8583 13.9583 13.8583H12.925V15.3583C12.925 15.65 12.6917 15.875 12.4083 15.875C12.125 15.875 11.8917 15.6417 11.8917 15.3583V11.35C11.8917 11.0583 12.125 10.8333 12.4083 10.8333H14.3333C14.625 10.8333 14.85 11.0667 14.85 11.35V11.3583ZM9.075 10.8417H8.16667C7.70834 10.8417 7.33334 11.2167 7.33334 11.675V15.375C7.33334 15.6667 7.56667 15.8417 7.85 15.8417C8.13334 15.8417 9.06667 15.8417 9.06667 15.8417C10.05 15.8417 10.85 15.05 10.85 14.0833V12.6C10.85 11.6333 10.05 10.8417 9.06667 10.8417H9.075ZM9.81667 14.0833C9.81667 14.475 9.47501 14.8 9.075 14.8H8.38334V11.8833H9.08334C9.48334 11.8833 9.825 12.2083 9.825 12.6V14.0833H9.81667Z" fill="black"/>
</svg>
