<svg width="16" height="16" viewBox="0 0 16 16" fill="none" xmlns="http://www.w3.org/2000/svg">
<g clip-path="url(#clip0_0_643)">
<path d="M0.666667 3.16684H2.49067C2.63376 3.69333 2.94612 4.1581 3.37955 4.48946C3.81299 4.82082 4.34341 5.00035 4.889 5.00035C5.43459 5.00035 5.96501 4.82082 6.39845 4.48946C6.83188 4.1581 7.14424 3.69333 7.28733 3.16684H15.3333C15.5101 3.16684 15.6797 3.0966 15.8047 2.97158C15.9298 2.84655 16 2.67698 16 2.50017C16 2.32336 15.9298 2.15379 15.8047 2.02877C15.6797 1.90374 15.5101 1.83351 15.3333 1.83351H7.28733C7.14424 1.30702 6.83188 0.842243 6.39845 0.510885C5.96501 0.179527 5.43459 0 4.889 0C4.34341 0 3.81299 0.179527 3.37955 0.510885C2.94612 0.842243 2.63376 1.30702 2.49067 1.83351H0.666667C0.489856 1.83351 0.320286 1.90374 0.195262 2.02877C0.0702379 2.15379 0 2.32336 0 2.50017C0 2.67698 0.0702379 2.84655 0.195262 2.97158C0.320286 3.0966 0.489856 3.16684 0.666667 3.16684ZM4.88867 1.33351C5.11941 1.33351 5.34497 1.40193 5.53683 1.53012C5.72869 1.65832 5.87822 1.84053 5.96653 2.05371C6.05483 2.26689 6.07793 2.50147 6.03292 2.72778C5.9879 2.95409 5.87679 3.16197 5.71362 3.32513C5.55046 3.48829 5.34258 3.59941 5.11627 3.64442C4.88996 3.68944 4.65538 3.66633 4.4422 3.57803C4.22902 3.48973 4.04681 3.3402 3.91862 3.14834C3.79042 2.95648 3.722 2.73092 3.722 2.50017C3.72235 2.19086 3.84538 1.89432 4.0641 1.6756C4.28281 1.45689 4.57936 1.33386 4.88867 1.33351Z" fill="black"/>
<path d="M15.3333 7.33333H13.5093C13.3665 6.80672 13.0542 6.34178 12.6208 6.01028C12.1874 5.67879 11.657 5.49918 11.1113 5.49918C10.5657 5.49918 10.0352 5.67879 9.60182 6.01028C9.16842 6.34178 8.85619 6.80672 8.71333 7.33333H0.666667C0.489856 7.33333 0.320286 7.40357 0.195262 7.52859C0.0702379 7.65362 0 7.82319 0 8C0 8.17681 0.0702379 8.34638 0.195262 8.4714C0.320286 8.59643 0.489856 8.66667 0.666667 8.66667H8.71333C8.85619 9.19328 9.16842 9.65822 9.60182 9.98971C10.0352 10.3212 10.5657 10.5008 11.1113 10.5008C11.657 10.5008 12.1874 10.3212 12.6208 9.98971C13.0542 9.65822 13.3665 9.19328 13.5093 8.66667H15.3333C15.5101 8.66667 15.6797 8.59643 15.8047 8.4714C15.9298 8.34638 16 8.17681 16 8C16 7.82319 15.9298 7.65362 15.8047 7.52859C15.6797 7.40357 15.5101 7.33333 15.3333 7.33333ZM11.1113 9.16667C10.8806 9.16667 10.655 9.09824 10.4632 8.97005C10.2713 8.84185 10.1218 8.65964 10.0335 8.44646C9.94517 8.23328 9.92207 7.9987 9.96708 7.77239C10.0121 7.54608 10.1232 7.3382 10.2864 7.17504C10.4495 7.01188 10.6574 6.90077 10.8837 6.85575C11.11 6.81073 11.3446 6.83384 11.5578 6.92214C11.771 7.01044 11.9532 7.15998 12.0814 7.35183C12.2096 7.54369 12.278 7.76925 12.278 8C12.2776 8.30931 12.1546 8.60585 11.9359 8.82457C11.7172 9.04328 11.4206 9.16631 11.1113 9.16667Z" fill="black"/>
<path d="M15.3333 12.8333H7.28733C7.14424 12.3068 6.83188 11.8421 6.39845 11.5107C5.96501 11.1793 5.43459 10.9998 4.889 10.9998C4.34341 10.9998 3.81299 11.1793 3.37955 11.5107C2.94612 11.8421 2.63376 12.3068 2.49067 12.8333H0.666667C0.489856 12.8333 0.320286 12.9036 0.195262 13.0286C0.0702379 13.1536 0 13.3232 0 13.5C0 13.6768 0.0702379 13.8464 0.195262 13.9714C0.320286 14.0964 0.489856 14.1667 0.666667 14.1667H2.49067C2.63376 14.6931 2.94612 15.1579 3.37955 15.4893C3.81299 15.8206 4.34341 16.0002 4.889 16.0002C5.43459 16.0002 5.96501 15.8206 6.39845 15.4893C6.83188 15.1579 7.14424 14.6931 7.28733 14.1667H15.3333C15.5101 14.1667 15.6797 14.0964 15.8047 13.9714C15.9298 13.8464 16 13.6768 16 13.5C16 13.3232 15.9298 13.1536 15.8047 13.0286C15.6797 12.9036 15.5101 12.8333 15.3333 12.8333ZM4.88867 14.6667C4.65792 14.6667 4.43236 14.5982 4.2405 14.47C4.04864 14.3418 3.89911 14.1596 3.81081 13.9465C3.72251 13.7333 3.6994 13.4987 3.74442 13.2724C3.78943 13.0461 3.90055 12.8382 4.06371 12.675C4.22687 12.5119 4.43475 12.4008 4.66106 12.3557C4.88737 12.3107 5.12195 12.3338 5.33513 12.4221C5.54831 12.5104 5.73052 12.66 5.85871 12.8518C5.98691 13.0437 6.05533 13.2692 6.05533 13.5C6.0548 13.8092 5.93172 14.1057 5.71304 14.3244C5.49436 14.543 5.19792 14.6661 4.88867 14.6667Z" fill="black"/>
</g>
<defs>
<clipPath id="clip0_0_643">
<rect width="16" height="16" fill="white"/>
</clipPath>
</defs>
</svg>
