<svg width="16" height="16" viewBox="0 0 16 16" fill="none" xmlns="http://www.w3.org/2000/svg">
<g clip-path="url(#clip0_0_645)">
<path d="M15.8224 14.9275L12.0451 11.1503C13.0745 9.89137 13.5806 8.28497 13.4588 6.66336C13.3369 5.04176 12.5965 3.52902 11.3906 2.43804C10.1846 1.34707 8.60555 0.761323 6.97988 0.80197C5.35422 0.842617 3.80636 1.50654 2.65648 2.65642C1.50661 3.8063 0.842678 5.35416 0.802031 6.97982C0.761384 8.60549 1.34713 10.1846 2.4381 11.3905C3.52908 12.5964 5.04182 13.3369 6.66342 13.4587C8.28503 13.5805 9.89143 13.0744 11.1503 12.0451L14.9276 15.8223C15.047 15.9376 15.2068 16.0014 15.3727 16C15.5387 15.9985 15.6974 15.932 15.8147 15.8146C15.932 15.6973 15.9986 15.5386 16 15.3727C16.0015 15.2067 15.9377 15.0469 15.8224 14.9275ZM7.14844 12.2109C6.14717 12.2109 5.16838 11.914 4.33586 11.3577C3.50333 10.8014 2.85446 10.0108 2.47129 9.08571C2.08812 8.16066 1.98787 7.14276 2.18321 6.16073C2.37854 5.1787 2.8607 4.27665 3.5687 3.56864C4.27671 2.86064 5.17876 2.37848 6.16079 2.18314C7.14282 1.98781 8.16072 2.08806 9.08577 2.47123C10.0108 2.8544 10.8015 3.50327 11.3578 4.3358C11.914 5.16832 12.2109 6.14711 12.2109 7.14838C12.2094 8.49057 11.6756 9.77737 10.7265 10.7264C9.77743 11.6755 8.49063 12.2094 7.14844 12.2109Z" fill="black"/>
</g>
<defs>
<clipPath id="clip0_0_645">
<rect width="16" height="16" fill="white"/>
</clipPath>
</defs>
</svg>
